HIERARCHY
ROOT Hips
{
	OFFSET 0.000000 83.214638 0.000000
	CHANNELS 6 Xposition Yposition Zposition Xrotation Yrotation Zrotation
	JOINT Pelvis
	{
		OFFSET 0.000000 0.000000 0.000000
		CHANNELS 3 Xrotation Yrotation Zrotation
		JOINT LeftUpLeg
		{
			OFFSET 8.479700 -4.795502 -0.379100
			CHANNELS 3 Xrotation Yrotation Zrotation
			JOINT LeftLeg
			{
				OFFSET 0.024144 -32.555107 0.112900
				CHANNELS 3 Xrotation Yrotation Zrotation
				JOINT LeftFoot
				{
					OFFSET -0.024144 -32.638630 -3.012600
					CHANNELS 3 Xrotation Yrotation Zrotation
					JOINT LeftToeBase
					{
						OFFSET 0.970200 -13.225400 11.864200
						CHANNELS 3 Xrotation Yrotation Zrotation
						End Site
						{
							OFFSET 0.000000 12.319262 0.000000
						}
					}
					JOINT LFootTongue
					{
						OFFSET 1.142400 -1.059800 6.665200
						CHANNELS 3 Xrotation Yrotation Zrotation
						End Site
						{
							OFFSET 0.000000 12.319262 0.000000
						}
					}
				}
				JOINT LeftPantLeg
				{
					OFFSET 0.918482 -16.533964 -2.284700
					CHANNELS 3 Xrotation Yrotation Zrotation
					End Site
					{
						OFFSET 0.350399 24.744368 0.000000
					}
				}
			}
		}
		JOINT RightUpLeg
		{
			OFFSET -8.479700 -4.795502 -0.379100
			CHANNELS 3 Xrotation Yrotation Zrotation
			JOINT RightLeg
			{
				OFFSET -0.023144 -32.555092 0.112900
				CHANNELS 3 Xrotation Yrotation Zrotation
				JOINT RightFoot
				{
					OFFSET 0.023144 -32.638641 -3.012700
					CHANNELS 3 Xrotation Yrotation Zrotation
					JOINT RightToeBase
					{
						OFFSET -0.970200 -13.225400 11.864200
						CHANNELS 3 Xrotation Yrotation Zrotation
						End Site
						{
							OFFSET 0.000000 12.319244 0.000000
						}
					}
					JOINT RFootTongue
					{
						OFFSET -1.142200 -1.059800 6.665200
						CHANNELS 3 Xrotation Yrotation Zrotation
						End Site
						{
							OFFSET 0.000000 12.319243 0.000000
						}
					}
				}
				JOINT RightPantLeg
				{
					OFFSET -0.919482 -16.533978 -2.284800
					CHANNELS 3 Xrotation Yrotation Zrotation
					End Site
					{
						OFFSET -0.350400 24.744419 0.000000
					}
				}
			}
		}
	}
	JOINT Spine
	{
		OFFSET 0.000000 7.722000 1.166200
		CHANNELS 3 Xrotation Yrotation Zrotation
		JOINT Spine1
		{
			OFFSET 0.000000 12.024101 0.248800
			CHANNELS 3 Xrotation Yrotation Zrotation
			JOINT Spine2
			{
				OFFSET 0.000000 11.502998 -0.491200
				CHANNELS 3 Xrotation Yrotation Zrotation
				JOINT Neck
				{
					OFFSET 0.000000 18.430702 -3.123100
					CHANNELS 3 Xrotation Yrotation Zrotation
					JOINT Head
					{
						OFFSET 0.000000 9.051102 1.034000
						CHANNELS 3 Xrotation Yrotation Zrotation
						JOINT HairB
						{
							OFFSET 0.208400 24.786102 24.822300
							CHANNELS 3 Xrotation Yrotation Zrotation
							End Site
							{
								OFFSET 0.000000 32.263779 0.000000
							}
						}
						JOINT HairA
						{
							OFFSET -7.081100 24.428299 23.196600
							CHANNELS 3 Xrotation Yrotation Zrotation
							End Site
							{
								OFFSET 0.000000 32.263779 0.000000
							}
						}
						JOINT Hat
						{
							OFFSET 16.728800 15.048294 -15.439601
							CHANNELS 3 Xrotation Yrotation Zrotation
							End Site
							{
								OFFSET 0.000000 32.263779 0.000000
							}
						}
					}
				}
				JOINT LeftShoulder
				{
					OFFSET 6.197800 13.665199 -4.064700
					CHANNELS 3 Xrotation Yrotation Zrotation
					JOINT LeftArm
					{
						OFFSET 7.778100 -0.187103 -1.709300
						CHANNELS 3 Xrotation Yrotation Zrotation
						JOINT LeftForeArm
						{
							OFFSET 22.049376 0.000000 0.000000
							CHANNELS 3 Xrotation Yrotation Zrotation
							JOINT LeftHand
							{
								OFFSET 23.009392 0.000000 0.000000
								CHANNELS 3 Xrotation Yrotation Zrotation
								JOINT LeftHandThumb1
								{
									OFFSET 3.507191 -2.063065 3.133727
									CHANNELS 3 Xrotation Yrotation Zrotation
									JOINT LeftHandThumb2
									{
										OFFSET 3.101337 -1.790558 1.790558
										CHANNELS 3 Xrotation Yrotation Zrotation
										JOINT LeftHandThumb3
										{
											OFFSET 3.058640 -1.765907 1.765906
											CHANNELS 3 Xrotation Yrotation Zrotation
											End Site
											{
												OFFSET -0.415260 3.926476 -0.049563
											}
										}
									}
								}
								JOINT LeftHandIndex1
								{
									OFFSET 11.334419 -0.901459 3.706815
									CHANNELS 3 Xrotation Yrotation Zrotation
									JOINT LeftHandIndex2
									{
										OFFSET 3.283112 0.000000 0.000000
										CHANNELS 3 Xrotation Yrotation Zrotation
										JOINT LeftHandIndex3
										{
											OFFSET 3.323853 0.000000 0.000000
											CHANNELS 3 Xrotation Yrotation Zrotation
											End Site
											{
												OFFSET -1.135597 3.097809 0.402452
											}
										}
									}
								}
								JOINT LeftHandMiddle1
								{
									OFFSET 11.335861 0.000000 0.000000
									CHANNELS 3 Xrotation Yrotation Zrotation
									JOINT LeftHandMiddle2
									{
										OFFSET 3.410492 0.000000 0.000000
										CHANNELS 3 Xrotation Yrotation Zrotation
										JOINT LeftHandMiddle3
										{
											OFFSET 3.312172 0.000000 0.000000
											CHANNELS 3 Xrotation Yrotation Zrotation
											End Site
											{
												OFFSET -1.150200 3.080154 0.400270
											}
										}
									}
								}
								JOINT LeftHandRing1
								{
									OFFSET 11.514786 -0.013176 -3.003090
									CHANNELS 3 Xrotation Yrotation Zrotation
									JOINT LeftHandRing2
									{
										OFFSET 3.053307 0.000000 0.000000
										CHANNELS 3 Xrotation Yrotation Zrotation
										JOINT LeftHandRing3
										{
											OFFSET 3.295807 0.000000 0.000000
											CHANNELS 3 Xrotation Yrotation Zrotation
											End Site
											{
												OFFSET -1.281006 3.013344 0.375733
											}
										}
									}
								}
								JOINT LeftHandPinky1
								{
									OFFSET 10.518692 -0.960396 -5.730441
									CHANNELS 3 Xrotation Yrotation Zrotation
									JOINT LeftHandPinky2
									{
										OFFSET 2.861649 0.000000 0.000000
										CHANNELS 3 Xrotation Yrotation Zrotation
										JOINT LeftHandPinky3
										{
											OFFSET 2.863380 0.000000 0.000000
											CHANNELS 3 Xrotation Yrotation Zrotation
											End Site
											{
												OFFSET -0.843597 2.711159 0.369971
											}
										}
									}
								}
							}
							JOINT LSleeve
							{
								OFFSET 6.676277 -0.344902 -1.011730
								CHANNELS 3 Xrotation Yrotation Zrotation
								End Site
								{
									OFFSET 0.000000 14.885353 0.000000
								}
							}
						}
					}
				}
				JOINT RightShoulder
				{
					OFFSET -6.197800 13.665199 -4.064700
					CHANNELS 3 Xrotation Yrotation Zrotation
					JOINT RightArm
					{
						OFFSET -7.778100 -0.187103 -1.709300
						CHANNELS 3 Xrotation Yrotation Zrotation
						JOINT RightForeArm
						{
							OFFSET -22.049376 0.000000 0.000000
							CHANNELS 3 Xrotation Yrotation Zrotation
							JOINT RightHand
							{
								OFFSET -23.009392 0.000000 0.000000
								CHANNELS 3 Xrotation Yrotation Zrotation
								JOINT RightHandThumb1
								{
									OFFSET -3.507191 -2.063065 3.133727
									CHANNELS 3 Xrotation Yrotation Zrotation
									JOINT RightHandThumb2
									{
										OFFSET -3.101337 -1.790558 1.790558
										CHANNELS 3 Xrotation Yrotation Zrotation
										JOINT RightHandThumb3
										{
											OFFSET -3.058640 -1.765907 1.765906
											CHANNELS 3 Xrotation Yrotation Zrotation
											End Site
											{
												OFFSET 0.415260 3.926476 -0.049563
											}
										}
									}
								}
								JOINT RightHandIndex1
								{
									OFFSET -11.334419 -0.901459 3.706815
									CHANNELS 3 Xrotation Yrotation Zrotation
									JOINT RightHandIndex2
									{
										OFFSET -3.283112 0.000000 0.000000
										CHANNELS 3 Xrotation Yrotation Zrotation
										JOINT RightHandIndex3
										{
											OFFSET -3.323853 0.000000 0.000000
											CHANNELS 3 Xrotation Yrotation Zrotation
											End Site
											{
												OFFSET 1.135597 3.097809 0.402452
											}
										}
									}
								}
								JOINT RightHandMiddle1
								{
									OFFSET -11.335861 0.000000 0.000000
									CHANNELS 3 Xrotation Yrotation Zrotation
									JOINT RightHandMiddle2
									{
										OFFSET -3.410492 0.000000 0.000000
										CHANNELS 3 Xrotation Yrotation Zrotation
										JOINT RightHandMiddle3
										{
											OFFSET -3.312172 0.000000 0.000000
											CHANNELS 3 Xrotation Yrotation Zrotation
											End Site
											{
												OFFSET 1.150200 3.080154 0.400270
											}
										}
									}
								}
								JOINT RightHandRing1
								{
									OFFSET -11.514786 -0.013176 -3.003090
									CHANNELS 3 Xrotation Yrotation Zrotation
									JOINT RightHandRing2
									{
										OFFSET -3.053307 0.000000 0.000000
										CHANNELS 3 Xrotation Yrotation Zrotation
										JOINT RightHandRing3
										{
											OFFSET -3.295807 0.000000 0.000000
											CHANNELS 3 Xrotation Yrotation Zrotation
											End Site
											{
												OFFSET 1.281006 3.013344 0.375733
											}
										}
									}
								}
								JOINT RightHandPinky1
								{
									OFFSET -10.518692 -0.960396 -5.730441
									CHANNELS 3 Xrotation Yrotation Zrotation
									JOINT RightHandPinky2
									{
										OFFSET -2.861649 0.000000 0.000000
										CHANNELS 3 Xrotation Yrotation Zrotation
										JOINT RightHandPinky3
										{
											OFFSET -2.863380 0.000000 0.000000
											CHANNELS 3 Xrotation Yrotation Zrotation
											End Site
											{
												OFFSET 0.843597 2.711159 0.369971
											}
										}
									}
								}
							}
							JOINT RSleeve
							{
								OFFSET -6.676277 -0.344902 -1.011730
								CHANNELS 3 Xrotation Yrotation Zrotation
								End Site
								{
									OFFSET 0.000000 14.885353 0.000000
								}
							}
						}
					}
				}
				JOINT Backpack
				{
					OFFSET 0.000000 -2.471497 36.677502
					CHANNELS 3 Xrotation Yrotation Zrotation
					End Site
					{
						OFFSET 0.000000 20.427315 0.000000
					}
				}
				JOINT Hood
				{
					OFFSET 0.000000 18.754097 -10.431000
					CHANNELS 3 Xrotation Yrotation Zrotation
					JOINT Hood1
					{
						OFFSET 0.000000 -5.011002 -7.685901
						CHANNELS 3 Xrotation Yrotation Zrotation
						End Site
						{
							OFFSET 0.000000 9.175140 0.000000
						}
					}
				}
				JOINT LHoodieString
				{
					OFFSET 5.250500 16.397697 3.089900
					CHANNELS 3 Xrotation Yrotation Zrotation
					JOINT LHoodieString1
					{
						OFFSET 0.257700 -6.364304 3.694600
						CHANNELS 3 Xrotation Yrotation Zrotation
						JOINT LHoodieString2
						{
							OFFSET 0.000000 -9.643799 2.679100
							CHANNELS 3 Xrotation Yrotation Zrotation
							End Site
							{
								OFFSET 0.000000 10.009018 0.000000
							}
						}
					}
				}
				JOINT RHoodieString
				{
					OFFSET -5.250500 16.397697 3.089900
					CHANNELS 3 Xrotation Yrotation Zrotation
					JOINT RHoodieString1
					{
						OFFSET -0.257700 -6.364304 3.694600
						CHANNELS 3 Xrotation Yrotation Zrotation
						JOINT RHoodieString2
						{
							OFFSET 0.000000 -9.643799 2.679100
							CHANNELS 3 Xrotation Yrotation Zrotation
							End Site
							{
								OFFSET 0.000000 10.009018 0.000000
							}
						}
					}
				}
			}
			JOINT LBackpack_Strap
			{
				OFFSET 15.223200 -7.719803 -6.610900
				CHANNELS 3 Xrotation Yrotation Zrotation
				End Site
				{
					OFFSET 0.000000 16.040596 0.000000
				}
			}
			JOINT RBackpack_Strap
			{
				OFFSET -15.223000 -7.719803 -6.610900
				CHANNELS 3 Xrotation Yrotation Zrotation
				End Site
				{
					OFFSET 0.000000 16.040596 0.000000
				}
			}
		}
	}
	JOINT BoyFacialAnim_Joint
	{
		OFFSET 1.000000 -82.208099 -1.550900
		CHANNELS 3 Xrotation Yrotation Zrotation
		End Site
		{
			OFFSET 0.000000 30.012791 0.000000
		}
	}
}
MOTION
Frames: 4
Frame Time: 0.033333
4.853128 75.664581 6.790842 8.352517 12.792623 -4.988898 -0.000001 -0.000001 -0.000000 -48.519721 -0.072876 6.578654 42.304464 -9.606897 1.424141 -2.198883 -8.912401 -2.960346 0.000000 0.000000 -0.000000 0.000000 0.000000 -0.000000 -0.000000 -0.000000 0.000000 -2.619164 -18.274356 0.109813 31.224442 -8.413086 7.023681 -30.885258 -26.103755 1.501918 0.000000 0.000001 -0.000000 0.000000 0.000001 -0.000000 0.000000 -0.000000 -0.000000 5.894262 6.071199 -1.272554 11.623841 13.496405 -3.509602 12.027707 13.040756 -4.194382 2.659551 -6.365061 0.920228 -23.314883 -8.277467 -4.651303 0.000002 -0.000001 0.000001 0.000002 -0.000001 0.000001 0.000002 -0.000001 0.000001 -0.406620 11.148852 -12.555594 1.749278 -15.621833 -54.274032 -0.000002 -73.639254 -0.000007 17.324727 -8.395080 -0.146200 -13.523103 -12.895335 -2.478516 13.885126 35.315056 -4.429223 -0.000000 0.000002 0.000002 -0.344901 2.202052 -19.481270 0.293387 1.832442 -18.191715 0.000002 -0.000001 -0.000000 -0.138350 3.484056 -28.647705 0.536713 2.451487 -24.694394 0.000001 0.000001 -0.000001 2.173399 7.594804 -29.639855 0.754414 2.877670 -29.374902 -0.000002 0.000000 -0.000000 3.174544 11.179215 -21.698505 0.118282 1.172484 -11.520520 -0.000000 -0.000001 -0.000000 -0.000001 0.000001 0.000004 -3.713921 21.894472 32.083338 -19.884607 63.243768 52.587901 -0.000012 15.010174 -0.000003 36.461428 0.766488 32.137071 0.593637 10.596575 7.526914 28.044501 -43.016385 8.025741 0.000000 0.000001 0.000001 0.603530 -4.683443 41.871351 1.832943 -3.704611 52.638140 0.000002 -0.000003 0.000003 2.730474 -6.493585 64.535336 4.293925 -4.643009 85.521536 0.000002 -0.000001 0.000001 3.431161 -6.754289 73.698479 4.010798 -4.612190 82.013660 -0.000001 -0.000002 0.000000 2.996157 -6.607592 68.038950 3.022196 -4.361342 69.426585 0.000001 0.000001 0.000000 0.000001 0.000001 -0.000001 -0.000000 0.000001 0.000000 -0.000000 0.000001 0.000000 -0.000000 0.000001 0.000000 -0.000000 0.000001 0.000000 -0.000000 0.000001 0.000001 -0.000000 -0.000000 -0.000000 -0.000000 0.000001 0.000000 -0.000000 0.000001 0.000001 -0.000000 -0.000000 -0.000000 0.000003 -0.000000 -0.000000 0.000003 -0.000000 -0.000000 -0.000001 -0.000001 -0.000000 
5.194928 75.913315 6.938260 8.474428 11.733099 -4.998494 -0.000000 0.000000 0.000000 -47.981806 -0.162570 6.544222 41.897794 -9.610114 1.638756 -2.417902 -7.770327 -3.070282 0.000000 -0.000000 -0.000000 0.000000 -0.000000 -0.000000 0.000000 -0.000000 -0.000000 -2.616784 -17.917114 0.035522 30.465393 -8.696426 6.506537 -29.706866 -25.765635 2.012624 -0.000000 0.000001 0.000000 -0.000000 0.000001 0.000000 0.000000 -0.000001 0.000000 6.294527 5.936847 -1.496071 12.467888 13.090171 -3.975787 12.858285 12.645268 -4.545730 3.251451 -6.457517 2.181252 -23.566509 -7.735838 -4.864099 0.000001 0.000001 -0.000001 0.000001 0.000001 -0.000001 0.000001 0.000001 -0.000001 -0.446326 11.209154 -12.025179 1.644839 -13.226748 -56.354856 0.000023 -72.587965 0.000011 18.283778 -8.166894 0.083099 -13.775812 -13.512527 -2.088027 13.740262 35.037043 -4.323639 0.000001 0.000001 0.000002 -0.405745 1.981777 -19.121321 0.293396 1.832431 -18.191650 0.000001 -0.000003 -0.000002 -0.168625 3.408651 -28.374805 0.537410 2.453005 -24.710759 0.000002 -0.000001 -0.000000 2.184635 7.632061 -29.453521 0.750732 2.871127 -29.301358 -0.000000 0.000000 -0.000004 3.146583 11.150080 -21.578695 0.117648 1.169423 -11.490011 -0.000002 -0.000000 -0.000002 -0.000000 0.000001 -0.000004 -3.633944 21.633233 31.618749 -20.220107 64.748889 53.015139 -0.000031 17.043511 -0.000002 37.846597 2.760458 31.100706 0.470014 10.734025 7.585078 27.715046 -42.865584 7.837937 0.000000 -0.000000 0.000001 0.516578 -4.587962 41.917421 1.828512 -3.701218 52.569558 -0.000002 0.000003 0.000000 2.751099 -6.503275 64.597907 4.293182 -4.642955 85.512459 0.000000 -0.000002 -0.000002 3.427196 -6.753212 73.591026 4.009923 -4.612076 82.002602 -0.000002 0.000003 0.000006 3.018041 -6.616150 68.272536 2.999697 -4.352857 69.130462 0.000001 -0.000001 -0.000003 -0.000000 0.000003 -0.000001 0.000002 -0.000002 0.000001 0.000002 -0.000002 0.000001 0.000002 -0.000002 0.000001 0.000002 -0.000002 0.000001 0.000002 -0.000002 0.000003 -0.000000 -0.000001 -0.000000 0.000002 -0.000002 0.000001 0.000002 -0.000002 0.000003 -0.000000 -0.000001 -0.000000 0.000001 0.000001 0.000000 0.000001 0.000001 0.000000 -0.000000 0.000000 0.000000 
5.568178 76.193748 7.066286 8.552535 10.408471 -5.093127 -0.000000 -0.000000 -0.000000 -47.374861 -0.217262 6.750169 41.448364 -9.614146 1.769790 -2.616657 -6.539032 -3.130252 -0.000000 -0.000000 -0.000000 -0.000000 -0.000000 -0.000000 0.000000 -0.000000 0.000000 -2.645443 -17.630238 -0.041406 29.706856 -9.011273 6.084113 -28.426382 -25.333324 2.299609 -0.000000 0.000000 0.000000 -0.000000 0.000000 0.000000 -0.000002 -0.000000 -0.000001 6.624112 5.790600 -1.632031 13.153993 12.656494 -4.287469 13.526882 12.233496 -4.742389 3.830501 -6.561555 3.261886 -23.766446 -7.376971 -4.961335 0.000002 0.000001 -0.000001 0.000002 0.000001 -0.000001 0.000002 0.000001 -0.000001 -0.505455 11.240030 -11.640886 1.709594 -11.574966 -58.181860 0.000104 -71.040244 0.000100 18.792449 -7.959756 0.314193 -14.039876 -14.285410 -1.533863 13.475534 34.520725 -4.130971 -0.000002 0.000002 -0.000004 -0.490026 1.644756 -18.504398 0.292070 1.828364 -18.149797 -0.000000 0.000003 -0.000001 -0.231111 3.285449 -28.284575 0.533804 2.445170 -24.626457 0.000003 -0.000002 -0.000000 2.250931 7.758275 -29.351532 0.741669 2.854934 -29.119955 -0.000001 -0.000000 -0.000002 3.146178 11.157343 -21.553610 0.116371 1.163089 -11.426844 -0.000001 -0.000001 -0.000002 -0.000003 0.000000 -0.000001 -3.575888 21.551217 30.938827 -18.097706 66.034296 51.026393 -0.000029 19.640489 0.000029 38.127564 4.451589 30.158164 0.373597 10.838654 7.636773 27.500932 -42.766164 7.716200 0.000000 0.000000 -0.000002 0.499239 -4.572861 42.060619 1.828218 -3.701005 52.564842 -0.000002 -0.000001 0.000003 2.753690 -6.504478 64.632154 4.291631 -4.642830 85.493252 -0.000001 -0.000001 -0.000000 3.415325 -6.749822 73.427006 4.006665 -4.611629 81.962140 -0.000002 -0.000001 0.000000 3.023144 -6.618148 68.330811 2.980438 -4.345482 68.876481 -0.000003 0.000000 -0.000003 0.000002 0.000000 -0.000001 -0.000003 -0.000001 0.000002 -0.000003 -0.000001 0.000002 -0.000003 -0.000001 0.000002 -0.000003 -0.000001 0.000002 -0.000003 -0.000001 0.000002 -0.000001 0.000001 0.000001 -0.000003 -0.000001 0.000002 -0.000003 -0.000001 0.000002 -0.000001 0.000001 0.000001 -0.000000 0.000001 -0.000001 -0.000000 0.000001 -0.000001 -0.000000 -0.000000 -0.000000 
5.984179 76.423004 7.183259 8.551699 8.923769 -5.208835 -0.000001 -0.000000 0.000001 -46.826776 -0.265055 7.031879 41.275677 -9.616280 1.884833 -2.946007 -5.222133 -3.132100 0.000000 -0.000000 -0.000000 0.000000 -0.000000 -0.000000 -0.000000 0.000000 -0.000000 -2.856802 -17.374311 -0.352006 29.399456 -9.253608 5.756869 -27.032207 -24.691438 2.992451 -0.000000 0.000002 0.000001 -0.000000 0.000002 0.000001 0.000001 -0.000000 -0.000000 6.902997 5.634726 -1.730948 13.721144 12.271421 -4.504492 14.080002 11.873827 -4.843002 4.290388 -6.688047 4.243126 -23.921865 -7.141200 -5.068495 0.000002 -0.000002 0.000001 0.000002 -0.000002 0.000001 0.000002 -0.000002 0.000001 -0.531340 11.160469 -11.396801 1.836307 -10.841994 -59.456728 0.000029 -69.112041 0.000047 17.850064 -7.740141 0.430164 -14.107740 -14.474996 -1.409209 13.307481 34.187255 -4.008802 0.000000 -0.000001 0.000000 -0.538691 1.423938 -18.051348 0.288514 1.817507 -18.038238 0.000001 -0.000001 -0.000002 -0.254395 3.252834 -28.421930 0.527273 2.430881 -24.472966 -0.000000 -0.000001 0.000003 2.322228 7.883406 -29.351017 0.733392 2.840039 -28.953380 -0.000000 0.000001 -0.000000 3.172103 11.213819 -21.575360 0.115140 1.156992 -11.366205 -0.000001 0.000000 -0.000000 0.000001 0.000000 0.000000 -3.402399 21.265765 30.018432 -16.020113 66.718866 48.930813 0.000004 22.507053 0.000002 38.435438 5.535947 29.037788 0.263788 10.964107 7.679658 27.252959 -42.650334 7.575338 0.000000 0.000000 -0.000000 0.499737 -4.575221 42.123518 1.829787 -3.702213 52.589229 -0.000003 -0.000000 0.000002 2.734581 -6.495477 64.646812 4.290205 -4.642708 85.475590 -0.000002 -0.000000 -0.000004 3.398887 -6.745070 73.222982 4.002010 -4.610954 81.903968 0.000001 0.000000 -0.000001 3.018674 -6.616409 68.286947 2.958943 -4.337165 68.592564 0.000001 0.000000 0.000002 0.000000 0.000005 0.000000 -0.000000 0.000002 -0.000002 -0.000000 0.000002 -0.000002 -0.000000 0.000002 -0.000002 -0.000000 0.000002 -0.000002 -0.000000 0.000002 -0.000002 0.000002 -0.000003 0.000002 -0.000000 0.000002 -0.000002 -0.000000 0.000002 -0.000002 0.000002 -0.000003 0.000002 -0.000000 0.000001 -0.000000 -0.000000 0.000001 -0.000000 -0.000001 -0.000000 0.000001 
